<svg id="圖層_1" data-name="圖層 1" xmlns="http://www.w3.org/2000/svg" viewBox="0 0 257 124.1"><defs><style>.cls-1{isolation:isolate;}.cls-2{fill:#fff;}.cls-3{fill:none;stroke:#fff;stroke-miterlimit:10;stroke-width:2.5px;}</style></defs><g id="圖層_2" data-name="圖層 2"><g id="圖層_4" data-name="圖層 4"><g class="cls-1"><path class="cls-2" d="M37.4-157.9l-2.4.6v7.8H32.9v-7.2c-1.2.3-2.4.6-3.4.9l-.6-2.3c1.1-.2,2.5-.5,4-.9v-5.6H31.1a16.09,16.09,0,0,1-1,3.5c-.4-.2-1.2-.5-1.6-.7a25.75,25.75,0,0,0,1.6-8l1.7.3c-.1.9-.2,1.9-.3,2.8h1.4v-4.8H35v4.8h2.3v2.1H35v5.2l2.2-.5Zm13.2.1H48.1v5.7c0,1.2-.2,1.8-1.1,2.2a9.42,9.42,0,0,1-3.7.4,9.35,9.35,0,0,0-.7-2.2h2.9c.4,0,.5-.1.5-.4v-5.6H38v-2.1h8v-2h2.2v2h2.5v2Zm-7.8-9.3H38v-2h4.8v-2.4H45v2.4h5v2H45v2.6h4.3v2.1H39v-2.1h3.8Zm-2,9.8a23.22,23.22,0,0,1,3,3.7L42-152.5a19.19,19.19,0,0,0-2.9-3.8Z" transform="translate(-28.5 171.5)"/><path class="cls-2" d="M74.7-155.7a27.1,27.1,0,0,1-4.1,2.3,14.34,14.34,0,0,0,5.4,1.8,4.39,4.39,0,0,0-1.2,1.8c-4.8-.9-7.9-3.2-9.7-6.9a18.07,18.07,0,0,1-3.9,2.2v2.5l5-1.1a10.28,10.28,0,0,0-.1,1.7c-6,1.4-6.8,1.6-7.3,1.9v-.2a5.23,5.23,0,0,0-.7-1.5,2.19,2.19,0,0,0,1-1.9v-.7a28.47,28.47,0,0,1-3.9,1.1,9.55,9.55,0,0,0-1.2-1.6,28.19,28.19,0,0,0,8.2-2.6H54.4v-1.8h9.9a6.11,6.11,0,0,0-.7-1.4l.5-.1H62.8a5.91,5.91,0,0,0-.6-1.4h1.5a.27.27,0,0,0,.3-.3v-1.2H61.5v3.7H59.6v-3.7H57.2v3.1H55.4v-4.5h4.1v-1.1H54.3v-1.5h1.6a4.59,4.59,0,0,0-1.4-.7,11.28,11.28,0,0,0,1.9-3.6l1.7.4c-.1.4-.3.8-.4,1.2h1.8v-1.7h1.9v1.6h4.1v1.5H61.4v1.2h4.8v1.6H61.4v1.1h4.3v2.8c0,.7-.1,1-.5,1.3l.4-.1a12.44,12.44,0,0,1,1,2h9.1v1.8H67.1a11.6,11.6,0,0,0,2,2.4,33.28,33.28,0,0,0,3.9-2.4ZM59.6-167.1v-1.3H57a14.8,14.8,0,0,1-.8,1.3ZM70-162.5H68v-7.8h2Zm4.6.9c0,1.1-.2,1.6-1,1.8a10.32,10.32,0,0,1-3.5.3,6.7,6.7,0,0,0-.7-1.8h2.7c.4,0,.5-.1.5-.4v-9.6h2Z" transform="translate(-28.5 171.5)"/><path class="cls-2" d="M86.3-151.6a28.35,28.35,0,0,0-1.9-2.3,15.51,15.51,0,0,1-3.6,4.2,9.27,9.27,0,0,0-1.4-1.4,14.66,14.66,0,0,0,3.7-4.3,28.78,28.78,0,0,0-3.1-3c.4-1.6.9-3.7,1.3-6l-1.5.1-.2-2a14.08,14.08,0,0,0,2-.1c.3-1.8.5-3.5.6-5l1.9.1c-.1,1.5-.4,3.2-.6,4.9l1.6-.1v-1.7H87v1.5l1.1-.1v1.9l-1.1.1a23,23,0,0,1-1.6,8.9,21.82,21.82,0,0,1,2.2,2.5ZM83-164.5a51,51,0,0,1-1.1,5.4c.6.6,1.3,1.2,1.9,1.8a20.23,20.23,0,0,0,1.2-7.3Zm17.9,1.4v1c-.4,7.6-.7,10.5-1.5,11.5a2.43,2.43,0,0,1-1.8.9,17.85,17.85,0,0,1-3.3,0,4.73,4.73,0,0,0-.7-2.2c1.3.1,2.6.1,3.1.1s.7,0,.9-.3c.6-.6.9-3,1.2-9H94.5c.5-1.8,1-4.3,1.4-6.7H92.7c-.1,7-.6,14.3-4.8,18.4a7.52,7.52,0,0,0-1.6-1.5c3.8-3.7,4.1-10.5,4.2-16.9H88.1v-2H98.3c-.4,2.1-.9,4.6-1.3,6.7Z" transform="translate(-28.5 171.5)"/><path class="cls-2" d="M111.7-156.6c1,.7,3.2,2.4,3.9,2.9l-1.2,1.7c-.7-.7-1.8-1.7-2.7-2.5v5h-2.1v-5.2a15.26,15.26,0,0,1-3.5,4,5,5,0,0,0-1.4-1.5,13.64,13.64,0,0,0,4.4-5.3h-3.7v-1.8h4.1v-1.9h2.2v1.9h3.6v1.8h-3.6Zm14.6-11v4.6H124v-3.2h-7.1v4.4h-2.2v-4.4h-6.9v3.2h-2.1v-4.6h9.1V-169h-8v-1.6h18.4v1.6H117v1.4Zm-18.1,4.5c1.3-.1,3.1-.4,4.9-.7a20.83,20.83,0,0,0-4.2-1.3l.6-1.1a20.83,20.83,0,0,1,4.2,1.3l-.6,1.2.7-.1.1,1.2c-1.8.4-3.6.8-5.2,1.1Zm7.8,2.4h9.7v11.1h-2.2v-.8H118v.8h-2.1v-11.1Zm2.2-3.3h.5l-.6-.8a43.42,43.42,0,0,0,4.3-1.4l.8,1.1a31.73,31.73,0,0,1-4.1,1.2,34.34,34.34,0,0,1,4.7,1l-.4,1.4a25.71,25.71,0,0,0-5.6-1.3Zm-.1,4.9v1.4h5.5v-1.4Zm5.5,4.3v-1.4h-5.5v1.4Zm0,2.8v-1.4h-5.5v1.4Z" transform="translate(-28.5 171.5)"/></g><g class="cls-1"><path class="cls-2" d="M56.9-67a12.51,12.51,0,0,1-3.3,4.8,16.55,16.55,0,0,0,5.5,2.1,8.32,8.32,0,0,0-1.3,1.8A16.12,16.12,0,0,1,52-60.9a18.85,18.85,0,0,1-6.1,2.8c-.1-.3-.4-.7-.6-1.1v3H42.2v4.4l1.5-.3c-.2-.9-.4-1.7-.6-2.5l1.6-.4A37.29,37.29,0,0,1,46-49.1l-1.7.5a5.55,5.55,0,0,0-.3-1.7c-2.5.5-5,1.1-7.1,1.5l-.4-2.1c1-.1,2.3-.4,3.7-.6v-4.7H38.9v1H37.4v-9.9h2.9v-4.1h1.9v4.1h3.1v1.2A13.5,13.5,0,0,0,50-69.5l1.9.5a10.93,10.93,0,0,1-.8,1.5h4.1l.4-.1ZM39-58.1h1.5v-5.2H39Zm4.6-5.2H42v5.2h1.6Zm1.7,3.4a17.78,17.78,0,0,0,5.3-2.3,9.09,9.09,0,0,1-1.8-2.1,11.23,11.23,0,0,1-2,1.8c-.3-.3-1-.8-1.4-1.2v3.8Zm7.8,7.8h5.4v1.7H53.1v2.9H51v-2.9H46v-1.7h5v-1.4H47.2v-1.6H51v-1.4H46.8v-1.6H51v-1.7h2.1v1.7h4.3v1.6H53.1v1.3H57v1.6H53.1ZM50-65.8l-.1.1A22.53,22.53,0,0,0,52-63.3a8.25,8.25,0,0,0,2.1-2.5Z" transform="translate(-28.5 171.5)"/><path class="cls-2" d="M71.7-58.9a7,7,0,0,1-2.4-.3,50.84,50.84,0,0,1-5.2,1.5,16.67,16.67,0,0,0-1.2-1.6,54.73,54.73,0,0,0,5.5-1.3v-3.7h1.9v3.1a17.91,17.91,0,0,0,7-4.4l1.7.8a20.39,20.39,0,0,1-6.4,4.5h3.8c.9,0,1.1-.2,1.2-1.5a4.92,4.92,0,0,0,1.7.6c-.2,2-.8,2.5-2.7,2.5H71.7ZM65-64H63v-3.8h9.2c-.2-.5-.5-.9-.7-1.3l2.1-.5c.3.5.7,1.2,1,1.8h8.6V-64H81.1v-2.1H72a15.86,15.86,0,0,1,2.7,1.7l-1.2,1.2a14,14,0,0,0-3.4-2.1L71-66H65ZM79.1-52.2a30.69,30.69,0,0,1,4.5,3.6l-1.7,1.2-1.3-1.3c-6.3.3-12.8.5-17.1.6L63.3-50c2.3,0,5.4-.1,8.7-.2v-2H65.3v-5.3H72v-1.2h2.2v1.2h7.2v5.3Zm-15.7-9a9.94,9.94,0,0,0,2.4-3l1.6.8A13.14,13.14,0,0,1,65-60ZM72-53.9v-1.8H67.5v1.8Zm2.2-1.8v1.8h4.9v-1.8Zm4.3,5.3c-.5-.4-1-.7-1.5-1.1l1.2-.7h-4v1.9Zm1-13.7a16.17,16.17,0,0,1,3.9,3.3l-1.7,1A17.75,17.75,0,0,0,78-63.2Z" transform="translate(-28.5 171.5)"/></g><line class="cls-3" x1="109" y1="12.1" x2="257" y2="12.1"/><line class="cls-3" x1="67.22" y1="113.6" x2="197.22" y2="113.6"/></g></g></svg>