<svg xmlns="http://www.w3.org/2000/svg" viewBox="0 0 456.35 391.08"><defs><style>.cls-1{isolation:isolate;}.cls-2{fill:#fff;}.cls-3{fill:none;stroke:#fff;stroke-miterlimit:10;stroke-width:2.5px;}</style></defs><g id="圖層_2" data-name="圖層 2"><g id="圖層_1-2" data-name="圖層 1"><g class="cls-1"><path class="cls-2" d="M293.18,79.92c0,.91-.19,1.42-.82,1.73a7.62,7.62,0,0,1-3,.31,7.81,7.81,0,0,0-.65-1.73c1,0,1.94,0,2.21,0s.41-.07.41-.36V78.07H287a8.46,8.46,0,0,1-1.54,4.11,6.69,6.69,0,0,0-1.39-1.47c1.08-1.48,1.17-3.45,1.17-5.16v-5h7.95Zm1-10.54H284.15V67.73h4.16v-1.3h-3.15V64.87h3.15v-1.2h-3.77V62.06h3.77V60h2.06v2h3.53v1.61h-3.53v1.2h2.9v1.56h-2.9v1.3h3.84Zm-2.9,7.16V75.12h-4.18v.48c0,.31,0,.6,0,.94Zm-4.18-4.37v1.42h4.18V72.17Zm18.94.7H304.6v3.67h-4.1v3.19c0,1.06-.19,1.61-.89,1.9a8.42,8.42,0,0,1-3.17.36,7.61,7.61,0,0,0-.62-1.95c1,0,2,0,2.23,0s.39-.08.39-.36V76.54H295.1V74.76h3.34V72.87h-4.33V71h4.33V69.22h-3.22V67.44h.89a12.92,12.92,0,0,0-1.35-3l1.59-.62a13.52,13.52,0,0,1,1.48,3l-1.48.62h8.25V71h1.47Zm-.65-11.12a53,53,0,0,1-10.68,1.78,6.38,6.38,0,0,0-.55-1.59,58.25,58.25,0,0,0,9.72-1.68ZM299,67.08a14.37,14.37,0,0,0-.89-3.29l1.7-.36a15.23,15.23,0,0,1,1,3.22ZM300.5,71h2.23V69.22H300.5Zm2.23,1.92H300.5v1.89h2.23Zm-1.05-6.32A21.16,21.16,0,0,0,303.26,63l1.85.52c-.58,1.28-1.23,2.62-1.78,3.56Z"/><path class="cls-2" d="M330.4,79.44c0,1.18-.28,1.73-1,2a11.49,11.49,0,0,1-4,.38,6.65,6.65,0,0,0-.72-1.87c1.29,0,2.61,0,3,0s.55-.14.55-.57V63.34H312.67V82.06h-2.16V61.22H330.4Zm-13.68-8.3v5.33h2.57V69.6h-5.62V67.75h3.15a38.35,38.35,0,0,0-1.59-3.55l1.8-.6a25.32,25.32,0,0,1,1.68,3.48l-1.68.67h4.61a30,30,0,0,0,1.92-4.2l2.19.53c-.63,1.25-1.35,2.57-2,3.67h3.63V69.6h-6v6.87H324V71.14h2v7.2H314.8v-7.2Z"/><path class="cls-2" d="M337.39,75.84c-.27,1.92-.72,4.15-1.08,5.59A10,10,0,0,0,334.6,81a32.83,32.83,0,0,0,1.06-5.49Zm4.51-1.37c-.07-.33-.17-.69-.29-1.1-4.85.74-5.64,1-6.1,1.2a14.15,14.15,0,0,0-.69-1.92c.55-.14,1.08-.72,1.8-1.63.33-.39,1-1.27,1.77-2.4a11.16,11.16,0,0,0-3,.53,17.09,17.09,0,0,0-.7-1.93c.41-.11.82-.6,1.27-1.29a29.33,29.33,0,0,0,2.83-5.88l2,.79a36.89,36.89,0,0,1-3.34,6.07l2.16-.19a26.08,26.08,0,0,0,1.8-3.34l1.8,1.08a44.86,44.86,0,0,1-5.2,7.69l3.12-.44c-.24-.72-.51-1.44-.75-2.09l1.49-.43c.58,1.49,1.32,3.48,1.63,4.66Zm-2.26.87a41.56,41.56,0,0,1,.67,5l-1.68.44a35.7,35.7,0,0,0-.57-5.09Zm2.35-.63a32.37,32.37,0,0,1,1.4,4.54l-1.56.55a40.11,40.11,0,0,0-1.32-4.63Zm13.83,5.38a58.07,58.07,0,0,0-5-3.62v3.38c0,1-.17,1.56-.84,1.85a7.4,7.4,0,0,1-2.95.36,5.85,5.85,0,0,0-.63-1.92c.89,0,1.76,0,2,0s.36-.09.36-.33V76.66c-1.56,1.17-3.12,2.33-4.42,3.26l-1.2-1.7c1.42-.87,3.53-2.23,5.62-3.65V70.8h-5.67V68.86h8.16c.12-.48.2-1,.32-1.49h-7.11c.6-1.92,1.39-5,1.9-7.37l2.06.24c-.12.58-.24,1.2-.41,1.82h4.76l.36-.09,1.53.21c-.31,2-.84,4.54-1.32,6.68h3.46V70.8h-6v3.53l.79.5a21.27,21.27,0,0,0,2.45-3.43l1.83,1.06c-.94,1.15-2,2.37-2.86,3.26,1.51,1,3,2,3.94,2.74Zm-9.31-4.61a30.49,30.49,0,0,0-2.79-2.83L345,71.47a36.09,36.09,0,0,1,2.83,2.69ZM352,65.64c.14-.65.26-1.3.35-1.85h-4.7c-.17.63-.34,1.27-.5,1.85Z"/><path class="cls-2" d="M373,65.79c-.17.21-.34.4-.51.62a27,27,0,0,0,9.84,4.51,9.8,9.8,0,0,0-1.44,1.85,29.11,29.11,0,0,1-9.65-5,24.27,24.27,0,0,1-9.69,5.16,8.2,8.2,0,0,0-1.35-1.82C364.84,69.84,369,67.71,371,65Zm-7.68-1.45h-4.78v-2h4.78v-2.3h2.25v2.3h2.93v2H367.6v2.28h-2.25Zm2.56,12.1a17.76,17.76,0,0,1-5.4,4.78,11.56,11.56,0,0,0-1.87-1.47,13.1,13.1,0,0,0,5-4ZM372.38,75v7.1h-2.33V75h-7V72.91h7V70.13h2.33v2.78h6.74V75ZM375,64.34h-3.29v-2H375V60.05h2.26v2.28h4.49v2H377.3v2.28H375Zm.84,11.26a32.88,32.88,0,0,1,5.5,4.35l-1.82,1.32a32.57,32.57,0,0,0-5.36-4.49Z"/><path class="cls-2" d="M399.38,73.15v1h6.48V82h-2.18v-.53H389.47V82h-2.09V74.11h6.05v-1h-7.59V71.67h21.63v1.48Zm-10.25-5.81a5,5,0,0,1-1.73,3.82,8.61,8.61,0,0,0-1.53-.89,3.7,3.7,0,0,0,1.48-3V67.2h-1.44V65.69h5.21V64.56h-4.2V60.34h1.8V63.1h2.4V60.05h2v11h-2V67.2h-2Zm14.55,12.92V77.47h-3.63c-1.94,0-2.42-.31-2.42-1.72v-.39h-2.52c-.24,1.2-1.25,2.23-4.32,2.81a7.57,7.57,0,0,0-1-1.25c2.33-.31,3.21-.91,3.5-1.56h-3.81v4.9Zm-11.74-2h9.72v1.2h-9.72Zm2.88-12a5.22,5.22,0,0,0-.77-1.22A29,29,0,0,0,400.17,64c-.6-.55-1.34-1.24-2-1.8a31.2,31.2,0,0,1-3.53.94,6.45,6.45,0,0,0-.93-1.25A17.39,17.39,0,0,0,400,60l1.7.38c-.29.19-.57.41-.89.6h4.32l.34-.1,1.08.63c-2,2.95-6.34,4.2-10.92,4.77h6.77V64.94h2v1.32h2.88v1.37h-2.88v1.66c0,.94-.19,1.32-.91,1.56a11.75,11.75,0,0,1-3.29.24,7.89,7.89,0,0,0-.65-1.54c1.05,0,2.13,0,2.4,0s.41-.08.41-.34V67.63h-5.38a12.45,12.45,0,0,1,2.23,1.73l-1.34,1.2a13.74,13.74,0,0,0-2.69-2.14l.91-.79h-2.35V66.26ZM398.63,64c-1.48.24-2.76.41-4,.6l-.2-1.2c1.18-.07,2.6-.19,4.2-.31Zm-1,9.14h-2.45v1h2.45Zm1.75,2.21v.41c0,.5.14.58.89.58h2.78c.43,0,.58,0,.63-.12v-.87ZM399.79,62c.62.5,1.22,1,1.7,1.51A10.07,10.07,0,0,0,404.06,62Z"/></g><g class="cls-1"><path class="cls-2" d="M322.18,201.71a42.8,42.8,0,0,1,6.31,7l-1.87,1.4a16.66,16.66,0,0,0-1.4-2c-13.2.69-14.73.74-15.81,1.12a22.87,22.87,0,0,0-.72-2.18,4.36,4.36,0,0,0,2-1.37A38.07,38.07,0,0,0,316,199l2.23,1a46.86,46.86,0,0,1-5.74,6.63l11.17-.46c-1-1.15-2.14-2.3-3.17-3.26Zm-11.69,9.34H326v10.18h-2.38V220H312.74v1.27h-2.25Zm2.25,2.14v4.65h10.92v-4.65Z"/><path class="cls-2" d="M336,209.87a15.42,15.42,0,0,0-3.43-2.49l1.23-1.54a15,15,0,0,1,3.5,2.3Zm-3,10a77,77,0,0,0,3-7.61l1.77,1.15c-.76,2.47-1.8,5.35-2.76,7.59Zm3.36-16.16a15.22,15.22,0,0,0-3.33-2.66l1.29-1.46a15.57,15.57,0,0,1,3.41,2.44Zm2.81,4.54a11.65,11.65,0,0,1-1,3.24,5.28,5.28,0,0,0-1-.69A8.32,8.32,0,0,0,338,208Zm3.1-1a6.07,6.07,0,0,0-.24-.72c-3.15.41-3.75.53-4.08.7a10.07,10.07,0,0,0-.48-1,2,2,0,0,0,1.12-.79,14.37,14.37,0,0,0,1.35-1.68,10.44,10.44,0,0,0-2.07.31,3.52,3.52,0,0,0-.48-1,1.46,1.46,0,0,0,.8-.63,12.69,12.69,0,0,0,1.41-3l1.32.46a14.18,14.18,0,0,1-1.58,2.73l1.39-.07a11.65,11.65,0,0,0,.6-1.08l1.27.53a21.75,21.75,0,0,1-2.76,3.67l1.75-.21c-.12-.24-.26-.48-.38-.7l1-.36a11.31,11.31,0,0,1,1.1,2.43Zm11.37,9.07a4.09,4.09,0,0,1-.14.84c-.41,2-.89,3.05-1.51,3.53a3.13,3.13,0,0,1-2,.55c-.72,0-2.19,0-3.68-.07a3.67,3.67,0,0,0-.6-1.7c1.47.14,3,.17,3.63.17a1.71,1.71,0,0,0,1-.17,3.08,3.08,0,0,0,.86-1.71H338.9A36.33,36.33,0,0,0,340,214h10.51v-1h-11.3v-1.35h13.39v3.73H341.71l-.29,1Zm-13.58-5.28a12.27,12.27,0,0,0-.48-2.88l1-.26a12,12,0,0,1,.56,2.76Zm2.09-.6a12.43,12.43,0,0,0-.75-2.61l1-.34a9.4,9.4,0,0,1,.79,2.5Zm6.53-7.61H343v-1.24h2.43a13.43,13.43,0,0,0-.84-1.83l1.46-.33a9,9,0,0,1,1,1.87l-1.1.29h2.81Zm-5.07,4.47h4.54v3.53h-4.54Zm4.51-2.57h-4.46v-1.13h4.46Zm-4.46.65h4.46v1.13h-4.46Zm1.34,4.34h1.71v-1.32H345Zm5.33-1.61a11.88,11.88,0,0,1-1,3.24,6.46,6.46,0,0,0-1-.71,8.79,8.79,0,0,0,.87-2.81Zm3.15-.81c-.08-.22-.17-.5-.29-.82a23.75,23.75,0,0,0-4.11.7c-.07-.19-.31-.75-.45-1a2.27,2.27,0,0,0,1.13-.82,19,19,0,0,0,1.32-1.66A8.06,8.06,0,0,0,349,204a5.66,5.66,0,0,0-.45-1c.26,0,.5-.27.76-.63a11.58,11.58,0,0,0,1.44-3l1.3.45a13.45,13.45,0,0,1-1.54,2.72l1.37-.08c.19-.36.41-.72.58-1.08l1.27.56a21.11,21.11,0,0,1-2.76,3.67l1.75-.22-.38-.69,1-.36a11.14,11.14,0,0,1,1.2,2.52Zm-2.28,3.94a13.3,13.3,0,0,0-.51-3.1l1.06-.26a13.61,13.61,0,0,1,.55,3Zm2.3-3.8a11.49,11.49,0,0,1,1,3l-1,.46a12.82,12.82,0,0,0-.91-3.08Z"/><path class="cls-2" d="M376.9,214.34h3.24v1.77H376.9v3c0,1.08-.22,1.63-1,1.9a12.18,12.18,0,0,1-3.81.31,8.37,8.37,0,0,0-.65-1.9c1.3,0,2.52,0,2.9,0s.44-.1.44-.41v-2.91h-6.22a17.26,17.26,0,0,1,2.71,2.86l-1.73,1.18a20.48,20.48,0,0,0-2.93-3.27l1.28-.77h-3.6v-1.77h10.49V213c-3.65.12-7.18.21-9.82.26l-.19-1.73c1.75,0,4,0,6.5-.07v-1.25h-5.42V203.8h5.42v-1.15h-6.38v-1.49A38.37,38.37,0,0,1,363,205v16.21h-2.11V208.34a26.54,26.54,0,0,1-2.07,2.49,16.58,16.58,0,0,0-1.22-2.25,26.79,26.79,0,0,0,5.69-9.24l2.09.62c-.12.34-.27.67-.41,1h6.31v-1.54h2.19V201h6.48v1.68h-6.48v1.15h5.64v6.43h-1.47a18.58,18.58,0,0,1,2.71,2.67l-1.58,1c-.22-.29-.48-.62-.79-1l-1,0Zm-9-8h3.38v-1.25h-3.38Zm3.38,2.54v-1.27h-3.38v1.27Zm2.19-3.79v1.25h3.48v-1.25Zm3.48,3.79v-1.27h-3.48v1.27Zm-3.48,2.55,3-.05c-.39-.36-.77-.7-1.16-1l.29-.17h-2.13Z"/><path class="cls-2" d="M390.69,213.59a8.93,8.93,0,0,0-.26-1.15c-5,.89-5.78,1.08-6.26,1.35a13.39,13.39,0,0,0-.7-2c.55-.15,1.08-.72,1.8-1.61a24.42,24.42,0,0,0,1.73-2.33,10.35,10.35,0,0,0-3,.55c-.12-.43-.46-1.46-.7-2,.43-.12.84-.59,1.35-1.32a30.7,30.7,0,0,0,3-5.9l2,.86a38,38,0,0,1-3.65,6.22l2.11-.17a34.4,34.4,0,0,0,1.9-3.48l1.87,1.15a47.15,47.15,0,0,1-5.23,7.61l3.22-.48a16.36,16.36,0,0,0-.8-2.08l1.56-.56a23.39,23.39,0,0,1,1.68,4.76Zm-4.58,1.4a30,30,0,0,1-1.13,5.8,12.9,12.9,0,0,0-1.68-.62,22.82,22.82,0,0,0,1-5.5Zm2.45-.44a40.42,40.42,0,0,1,.67,4.95l-1.73.43a46.79,46.79,0,0,0-.55-5Zm2.54-.64a30.64,30.64,0,0,1,1.27,4.12l-1.58.56a42.15,42.15,0,0,0-1.2-4.18Zm11.93,5c.48,0,.58-.46.63-3.22a6.25,6.25,0,0,0,1.89.87c-.19,3.38-.69,4.32-2.3,4.32h-1.9c-1.87,0-2.33-.65-2.33-2.74v-7.85l-1.85.22c-.21,5.4-.86,8.85-4.94,10.89a5.46,5.46,0,0,0-1.34-1.77c3.5-1.59,4-4.32,4.15-8.83a5.55,5.55,0,0,0-2,.43,17.61,17.61,0,0,0-.79-2.19c.55-.14,1-.77,1.68-1.75a26.87,26.87,0,0,0,1.75-3.05h-3.21v-2.09h4.22c.43-1,.84-1.94,1.18-2.95l2.45.67-1,2.28h5.88v2.09h-7a48.73,48.73,0,0,1-2.68,4.42l6.12-.58c-.46-.84-1-1.63-1.4-2.35l1.8-.79a34.53,34.53,0,0,1,3.32,5.86l-2,.93c-.19-.53-.46-1.15-.79-1.85l-1.44.17v8.07c0,.67,0,.79.55.79Z"/><path class="cls-2" d="M427.32,214.17a12.61,12.61,0,0,1-4.46,3.89,48.4,48.4,0,0,0,7.89,1.15,9.69,9.69,0,0,0-1.25,2.06,38.93,38.93,0,0,1-9.53-1.92,42.33,42.33,0,0,1-9.57,2,6.24,6.24,0,0,0-1.13-1.87,46.17,46.17,0,0,0,8-1.27,20.6,20.6,0,0,1-3.12-2,31.39,31.39,0,0,1-2.95,1.49,12.84,12.84,0,0,0-1.54-1.49,22.65,22.65,0,0,0,3-1.3,14.62,14.62,0,0,1-1.58-1.87l1.75-.74a13,13,0,0,0,1.51,1.63,13.18,13.18,0,0,0,2.62-2.16c-1-.24-1.3-.79-1.3-2v-2h2.07v2c0,.5.16.57,1.08.57h3.07c.67,0,.81-.16.91-1.36a6.31,6.31,0,0,0,1.73.62c-.19,1.87-.77,2.35-2.4,2.35h-3.07l.24.1a12.36,12.36,0,0,1-1.16,1.25h7.37l.39-.08ZM412,209h-2.11v-4.25H414a9.46,9.46,0,0,0-1.25-2.06l1.25-.51c-1,.05-2,.07-3,.1a7.08,7.08,0,0,0-.45-1.68,116.38,116.38,0,0,0,16.75-1.39l1.49,1.53a78,78,0,0,1-9,1.13,7.6,7.6,0,0,1,1.2,2.35l-1.46.53h4.1a28,28,0,0,0,2-3.43l2.16.77c-.63.91-1.32,1.87-2,2.66H430v4.49H427.8v-2.74h-7.94A14.5,14.5,0,0,1,422.3,208l-1.15,1.29a18.36,18.36,0,0,0-3.48-2.09l.65-.67H412Zm-1.17,2a6.8,6.8,0,0,0,2.52-3.41l1.7.72a7.47,7.47,0,0,1-2.64,3.89Zm8.52-9.13c-1.52.12-3.08.2-4.59.27a7.06,7.06,0,0,1,1.32,2.18l-1,.41h4a9.33,9.33,0,0,0-1.13-2.35Zm-3.41,13.25a18.61,18.61,0,0,0,4.29,2.09,13.14,13.14,0,0,0,3.7-2.25h-7.75Zm9.67-7.75a19.81,19.81,0,0,1,3.77,3.7l-1.61,1.2a18.26,18.26,0,0,0-3.67-3.8Z"/><path class="cls-2" d="M456.1,218.2v2.16H434.66V218.2H444v-7.13h-7.12v-2.18H444v-5.95h-8.2v-2.19H455v2.19H446.4v5.95H454v2.18H446.4v7.13Zm-6.22-6.38c1.39,1.32,3.31,3.12,4.27,4.25l-1.65,1.48c-.92-1.15-2.84-3-4.23-4.44Z"/></g><g class="cls-1"><path class="cls-2" d="M331.09,268.65a13.27,13.27,0,0,1-3.43,5.64,15,15,0,0,0,4.61,1.85A7.2,7.2,0,0,0,331,278a14.59,14.59,0,0,1-4.94-2.4,17.26,17.26,0,0,1-5,2.4,8.07,8.07,0,0,0-1.1-1.7v1.36h-1.75v-1.32H312.3V278h-1.68V261.67h2.49v-2.79h-2.88V257h9.89v1.87h-2.73v2.79h2.54v14.56a14.33,14.33,0,0,0,4.51-1.94,22.28,22.28,0,0,1-1.51-1.78,10.91,10.91,0,0,1-1.25,1.11,9.56,9.56,0,0,0-1.41-1.44,10,10,0,0,0,1.61-1.39,14.57,14.57,0,0,1-.89-2l1.58-.82a8.45,8.45,0,0,0,.53,1.3,12.12,12.12,0,0,0,1.42-3l1.92.35a12.31,12.31,0,0,1-.58,1.61h3.5l.36-.09Zm-12.91,6v-6.07h-1.13c-1,0-1.27-.26-1.27-1.51v-3.48h-1.13v1.75a5.84,5.84,0,0,1-1.61,4.37,4.9,4.9,0,0,0-.74-.67v5.61Zm-5.88-11.06v5.25a4.76,4.76,0,0,0,1.22-3.5v-1.75Zm.84,7.29h4.15v1.76h-4.15Zm1.49-9.16h1.2v-2.79h-1.2Zm3.55,1.87h-1.27V267c0,.29,0,.33.28.33h.65a.86.86,0,0,0,.34,0Zm6.91-1.42c-.31,2.57-1.13,4.32-3.91,5.38a5.83,5.83,0,0,0-1.15-1.56,3.91,3.91,0,0,0,3.09-3.63,8.46,8.46,0,0,0-2.11.34,11.52,11.52,0,0,0-.67-1.94,2.89,2.89,0,0,0,1.32-.89,21.39,21.39,0,0,0,3.09-3.94l2.17.65a28.68,28.68,0,0,1-3.34,3.91l5-.31c-.48-.58-.94-1.18-1.37-1.68l1.61-.87c1.1,1.3,2.61,3.1,3.36,4.13l-1.71,1a10,10,0,0,0-.64-1l-1.35.1v2.28c0,.53.07.69.41.69h1.7a7.13,7.13,0,0,0,1.23-.09c0,.48.09,1.27.17,1.7a4.4,4.4,0,0,1-1.35.14h-1.82c-1.83,0-2.23-.67-2.23-2.47V262ZM325,270c-.24.38-.48.76-.75,1.12a12.76,12.76,0,0,0,1.83,2,9.94,9.94,0,0,0,2.33-3.14Z"/><path class="cls-2" d="M341.55,262.77h3.72v2.06h-3.72v3.58h3.2v8.81h-2.09v-.84h-4.35v1.39h-2v-9.36h3v-3.58h-3.87v-2.06h3.87v-4.1h-3.46V256.6h8.93v2.07h-3.22Zm1.11,7.66h-4.35v4h4.35Zm14.81-7.85h-1.8V278h-2.26v-1.22h-4.3v1.32h-2.2V262.58h-2.09v-2.16h2.09V256.1h2.2v4.32h4.3V256.1h2.26v4.32h1.8Zm-4.06,0h-4.3v4.85h4.3Zm0,12.05v-5.09h-4.3v5.09Z"/><path class="cls-2" d="M373,259.46c-.31,1.08-.57,2.23-.86,3.19H380v15.43h-2.38v-1.51H366.3v1.51H364V262.65h5.79c.21-1,.43-2.14.55-3.19h-8.91v-2.19h20.81v2.19Zm4.66,5.28H366.3v3.81h11.35Zm0,9.77v-3.92H366.3v3.92Z"/><path class="cls-2" d="M401.15,263.49a52.13,52.13,0,0,1,7.08,4.51l-1.3,1.73a51.4,51.4,0,0,0-8.49-5.57V268h-2.31v-3.91a22.85,22.85,0,0,1-8.45,5.4,11.28,11.28,0,0,0-1.53-1.9,22.16,22.16,0,0,0,7.8-4.1h-7.23v-2h9.41v-2.13c-2.33.21-4.68.36-6.89.43a7.18,7.18,0,0,0-.55-1.87c5.3-.24,11.5-.82,15-1.76l1.63,1.8a61,61,0,0,1-6.88,1.18v2.35h9.43v2Zm-10.95,5.09h14.55V278h-2.31v-.76h-10v.79H390.2Zm2.21,1.75v1.78h10v-1.78Zm10,5.18v-1.82h-10v1.82Z"/><path class="cls-2" d="M425.63,270.64a23.54,23.54,0,0,0,8.25,4.68,11.58,11.58,0,0,0-1.53,1.9,25.72,25.72,0,0,1-8.45-5.62v6.46h-2.35v-6.34a23.14,23.14,0,0,1-8.48,5.62,10.63,10.63,0,0,0-1.48-1.85,21.83,21.83,0,0,0,8.23-4.85h-7.61v-2h9.34v-1.77h-7v-9.65H431v9.65H423.9v1.77h9.31v2Zm-8.79-9.55h4.71v-2h-4.71Zm4.71,3.84v-2.09h-4.71v2.09Zm7.08-5.88H423.9v2h4.73Zm0,3.79H423.9v2.09h4.73Z"/></g><g class="cls-1"><path class="cls-2" d="M348.66,372.07c-.48,2.81-1.59,5-4.54,6.34a6,6,0,0,0-1.05-1.39v11.73c0,1-.2,1.59-.84,1.92a8.16,8.16,0,0,1-3.2.34,6.84,6.84,0,0,0-.69-1.87c1.15,0,2.16,0,2.45,0s.43-.12.43-.43v-3.91h-5.33a14.18,14.18,0,0,1-1.85,6.26,8.39,8.39,0,0,0-1.58-1c1.6-2.52,1.77-6.05,1.77-8.74v-3.82l-.21.27a14.55,14.55,0,0,0-1.64-1.32A17.39,17.39,0,0,0,336,369l2,.46c-.17.57-.34,1.15-.53,1.72H340l.31-.09,1.3.81a29.61,29.61,0,0,1-1.44,3.17h2.86v1.73a5.81,5.81,0,0,0,3.52-4.73h-3v-1.85h10.44s0,.53,0,.77c-.16,3.89-.38,5.5-.88,6.08a1.82,1.82,0,0,1-1.37.67,15.63,15.63,0,0,1-2.43,0,5.41,5.41,0,0,0-.5-1.85,16.43,16.43,0,0,0,1.94.1c.32,0,.51,0,.65-.22s.43-1.27.55-3.72Zm-11.81.84c-.31.75-.65,1.49-1,2.16h2.45a21,21,0,0,0,.89-2.16Zm-.82,8.48c0,.55,0,1.12,0,1.72h1.85v-2.42H336Zm0-2.36h1.83v-2.28H336Zm3.39,0h1.8v-2.28h-1.8Zm1.8,4.08v-2.42h-1.8v2.42Zm13.49,3.6h-4.37v4.23h-2.11v-4.23h-4.76v-1.94h4.76v-2.59h-2.36a12.09,12.09,0,0,1-1.12,2.13,11.17,11.17,0,0,0-1.68-.88,13.64,13.64,0,0,0,2.06-5.28l1.85.38c-.12.58-.27,1.15-.43,1.73h1.68V378h2.11v2.31h3.91v1.92h-3.91v2.59h4.37Z"/><path class="cls-2" d="M365.12,388.68c0,1-.17,1.63-.77,2a5.46,5.46,0,0,1-2.81.38,8.36,8.36,0,0,0-.57-2c.84,0,1.63,0,1.87,0s.36-.09.36-.36v-6.19L361.54,384l-.5-1.13A27.23,27.23,0,0,1,359.5,391a6.46,6.46,0,0,0-1.7-.93c1.37-3.31,1.47-8.14,1.47-11.62v-8.59h5.85Zm-4-10.22c0,1.05,0,2.21-.07,3.45.6-.38,1.34-.84,2.11-1.37v-2.85l-.65.48c-.31-.48-.86-1.15-1.39-1.8Zm0-6.53v3.33l.55-.4a15,15,0,0,1,1.49,1.6v-4.53Zm10.95,15.65a16.07,16.07,0,0,1,2.66,2.42l-1.58.94a16.45,16.45,0,0,0-2.64-2.64l1-.72h-3.1l1.23.65a18.75,18.75,0,0,1-3.12,2.78,12.67,12.67,0,0,0-1.47-1.06,11.91,11.91,0,0,0,2.74-2.37h-1.32v-7.85h7v7.85Zm4.24-13.4c.17,7.95.82,14.12,1.9,14.17.29,0,.53-1.13.65-3.05a7.32,7.32,0,0,0,1.53,1.25c-.52,3.64-1.48,4.48-2.28,4.46-2.76-.07-3.52-6.91-3.76-16.83h-8.74v-1.89h8.69c0-1.06,0-2.14,0-3.24h2c0,1.08,0,2.16,0,3.24h2.3a16.3,16.3,0,0,0-2.25-2.21l1.44-.86a13.3,13.3,0,0,1,2.4,2.2l-1.27.87h1.12v1.89Zm-10.44,3.29h8v1.37h-8Zm7.47-2.28v1.37h-6.7v-1.37Zm-5.09,6.75h3.48v-1h-3.48Zm0,2.18h3.48v-1h-3.48Zm0,2.21h3.48v-1h-3.48Z"/><path class="cls-2" d="M389.43,382.71c-.28-.72-.81-2-1.34-3.1v11.45h-1.78V380a26.88,26.88,0,0,1-2.2,6.07,12.83,12.83,0,0,0-.92-2.21,26.17,26.17,0,0,0,2.83-8.19h-2.28v-2.06h2.57v-4.51h1.78v4.51h2.09v2.06h-2.09V377c.62.92,2.06,3.46,2.4,4.13Zm16-.89v1.68H390.13v-1.68h1.92v-3.41h11.88v3.41Zm-12.82-7.32h-1.9v-3.6h6.39c-.19-.51-.46-1-.65-1.49l1.94-.48a19.74,19.74,0,0,1,1,2H405v3.6h-2v-1.9h-6c.82.65,1.82,1.51,2.38,2.07l-1,1.08a28.08,28.08,0,0,0-2.47-2.31l.86-.84h-4.22Zm-1.82,10.05h14v1.68h-5.47v2.6c0,1-.19,1.51-.91,1.77a9.53,9.53,0,0,1-3.34.31,8.25,8.25,0,0,0-.6-1.84c1.08,0,2.16,0,2.47,0s.41-.07.41-.34v-2.52h-6.57Zm.09-7.89a10.21,10.21,0,0,0,2-2.48l1.44.77a11.53,11.53,0,0,1-2,2.67Zm2.88,5.16h1.75v-1.95H393.8Zm2.28-7.68v1.51c0,.48.12.55.89.55h2.59c.53,0,.65-.14.72-1.15a3.72,3.72,0,0,0,1.39.55c-.16,1.61-.64,2-1.92,2H396.8c-1.87,0-2.3-.43-2.3-2v-1.53Zm1,5.73v1.95h1.78v-1.95Zm3.27,0v1.95h1.8v-1.95Zm2.61-2.54a25.86,25.86,0,0,0-2.11-3l1.46-.6c.72.89,1.71,2.11,2.21,2.85Z"/><path class="cls-2" d="M415.47,383.19a26.6,26.6,0,0,0-1.44-2.93v10.8h-2v-9.82a22.58,22.58,0,0,1-2.26,5.43,11.85,11.85,0,0,0-1.06-1.95,26.6,26.6,0,0,0,3.13-8.57h-2.67v-2.06H412V369h2v5.07h2v2.06h-2v1.56c.63.87,2.19,3.27,2.57,3.87Zm14.81-.63c-.77.46-1.65.91-2.52,1.35a7.14,7.14,0,0,0,3.31,4.68,6.35,6.35,0,0,0-1.36,1.6,9,9,0,0,1-3.58-5.54c-.41.19-.82.36-1.22.5.62,2.16.21,4.28-.75,5.09a2.74,2.74,0,0,1-2.13.82c-.46,0-1,0-1.56-.05a4,4,0,0,0-.53-1.75,12.26,12.26,0,0,0,1.68.09,1.21,1.21,0,0,0,1.13-.4,2.92,2.92,0,0,0,.55-2.43,29.23,29.23,0,0,1-7.18,3.46,5.57,5.57,0,0,0-1-1.44A22,22,0,0,0,423,385c-.09-.29-.19-.53-.31-.82a26.74,26.74,0,0,1-5.86,2.66,5.36,5.36,0,0,0-.91-1.39,19.63,19.63,0,0,0,6.05-2.4c-.17-.24-.36-.45-.55-.67a29.89,29.89,0,0,1-4.32,1.54,7.2,7.2,0,0,0-.94-1.3,26.56,26.56,0,0,0,5.67-1.87H416.6V379.2h13.87v1.54h-6.12a12.85,12.85,0,0,1-1.48.88,7.67,7.67,0,0,1,1.48,2.05,44.86,44.86,0,0,0,4.64-2.52Zm-11.13-10.22h-3v-1.66h3V369h2v1.68h1.65v1.66h-1.65v1.37h-2Zm9.31,5.45v-2.12H418.4v2.12h-1.82v-3.65h13.8v3.65Zm-8.93.33V376.8h7.92v1.32Zm6.07-5.81h-1.77v-1.65h1.77V369h2.09v1.66h3.05v1.65h-3.05v1.4H425.6Z"/><path class="cls-2" d="M439,379.83a38.66,38.66,0,0,0-4.78-2.53l1.2-1.68a44.2,44.2,0,0,1,4.8,2.29Zm-3.82,9.45a72.62,72.62,0,0,0,4.52-7.61l1.63,1.49c-1.25,2.5-2.83,5.35-4.25,7.61Zm5.16-15.65a48.54,48.54,0,0,0-4.73-2.81l1.25-1.6a40.39,40.39,0,0,1,4.78,2.56Zm16,5.72h-6.44v11.71h-2.37V379.35h-6.43V377h6.43v-7.92h2.37V377h6.44Z"/></g><polyline class="cls-3" points="277.27 68.65 237.27 68.65 74.61 149.42"/><polyline class="cls-3" points="301.77 209.65 234.77 209.65 108.27 272.65"/><polyline class="cls-3" points="301.77 266.65 234.77 266.65 108.27 328.65"/><line class="cls-3" x1="109.81" y1="379.65" x2="326.27" y2="379.65"/><g class="cls-1"><path class="cls-2" d="M160.7,13.68l-2.43.65v7.73h-2.13V14.88c-1.23.34-2.38.63-3.41.87l-.6-2.26c1.1-.22,2.5-.5,4-.87V6.94h-1.8a18.4,18.4,0,0,1-1,3.52,11.08,11.08,0,0,0-1.63-.67,27.53,27.53,0,0,0,1.63-8l1.73.26c-.09.92-.21,1.85-.33,2.74h1.39V0h2.13V4.8h2.26V6.94h-2.26v5.21l2.21-.53Zm13.13.1h-2.55v5.66c0,1.2-.24,1.83-1.08,2.16a10.26,10.26,0,0,1-3.74.39,9.46,9.46,0,0,0-.75-2.21c1.25,0,2.5,0,2.89,0s.48-.1.48-.44V13.78h-8V11.71h8v-2h2.2v2h2.55Zm-7.76-9.36H161.3v-2h4.77V0h2.21V2.4h5v2h-5V7.06h4.28V9.12H162.23V7.06h3.84Zm-2,9.79a22.78,22.78,0,0,1,3,3.72l-1.77,1.13a23.54,23.54,0,0,0-2.88-3.84Z"/><path class="cls-2" d="M198,15.89A26.53,26.53,0,0,1,194,18.17,16,16,0,0,0,199.41,20a7.5,7.5,0,0,0-1.25,1.78c-4.8-.94-7.94-3.19-9.74-6.89a19,19,0,0,1-3.87,2.23v2.5l5-1.06a11.21,11.21,0,0,0-.1,1.66c-6,1.42-6.79,1.63-7.27,1.94V22a5.44,5.44,0,0,0-.72-1.47,2.14,2.14,0,0,0,1-1.94v-.67A24,24,0,0,1,178.58,19a8.43,8.43,0,0,0-1.2-1.61,26.84,26.84,0,0,0,8.21-2.64h-7.8V13h9.88a11.9,11.9,0,0,0-.67-1.39l.46-.12c-.39,0-.79,0-1.3,0a5.29,5.29,0,0,0-.57-1.36c.69,0,1.27,0,1.46,0s.26-.07.26-.26V8.45h-2.49v3.74H182.9V8.45h-2.35v3.14h-1.76V7h4.11V6h-5.21V4.39h1.58a8.57,8.57,0,0,0-1.39-.74,10.59,10.59,0,0,0,1.9-3.58l1.7.43-.43,1.16h1.85V0h1.92V1.66h4.08V3.17h-4.08V4.39h4.82V6h-4.82V7h4.32V9.84c0,.67-.1,1-.46,1.27l.41-.12a15.9,15.9,0,0,1,1,2H199v1.78h-8.6a9.67,9.67,0,0,0,2,2.37,31.38,31.38,0,0,0,3.93-2.37ZM182.9,4.39V3.17h-2.62c-.26.45-.55.86-.79,1.22Zm10.41,4.68h-2V1.22h2Zm4.57.87c0,1.05-.22,1.56-1,1.82a10.14,10.14,0,0,1-3.53.34,7.31,7.31,0,0,0-.68-1.8c1.21,0,2.36,0,2.69,0s.46-.09.46-.41V.24h2Z"/><path class="cls-2" d="M209.54,20a21.94,21.94,0,0,0-1.9-2.26A16.84,16.84,0,0,1,204,21.91a6.41,6.41,0,0,0-1.44-1.36,14.66,14.66,0,0,0,3.67-4.35c-1-1.08-2.14-2.16-3.12-3,.43-1.58.89-3.69,1.27-5.95l-1.49.1-.21-2,2-.08c.26-1.75.48-3.48.6-5l1.89.08c-.14,1.51-.36,3.16-.6,4.87l1.71-.1V3.38h1.87V4.9l1.08-.07V6.75l-1.08.09a23.63,23.63,0,0,1-1.58,8.93,26.67,26.67,0,0,1,2.2,2.47ZM206.32,7.08c-.33,2-.74,3.87-1.1,5.45.62.58,1.29,1.18,1.92,1.78A21.68,21.68,0,0,0,208.34,7ZM224.2,8.4s0,.67,0,1c-.36,7.64-.68,10.54-1.54,11.5a2.28,2.28,0,0,1-1.82.91,23.33,23.33,0,0,1-3.34,0,4.73,4.73,0,0,0-.7-2.19,28.12,28.12,0,0,0,3.12.15,1.07,1.07,0,0,0,.94-.34c.6-.57.94-3,1.22-9h-4.29c.45-1.75,1-4.34,1.39-6.72H216c-.12,7-.58,14.28-4.75,18.43a6.5,6.5,0,0,0-1.61-1.53c3.81-3.72,4.1-10.47,4.17-16.9h-2.4v-2h10.21c-.36,2.12-.87,4.64-1.35,6.7Z"/><path class="cls-2" d="M234.93,14.91c1,.69,3.24,2.4,3.86,2.88l-1.2,1.65c-.57-.6-1.68-1.58-2.66-2.45v5.07h-2.11V16.83a15.44,15.44,0,0,1-3.46,4A7.47,7.47,0,0,0,228,19.3,14.87,14.87,0,0,0,232.43,14h-3.69V12.24h4.08V10.32h2.11v1.92h3.58V14h-3.58Zm14.62-11V8.54h-2.26V5.3h-7.06V9.67h-2.16V5.3h-6.88V8.54H229V3.91h9.07V2.54h-8V1h18.41V2.54h-8.24V3.91Zm-18.1,4.56c1.34-.14,3.07-.38,4.94-.67a24,24,0,0,0-4.2-1.32l.58-1.06A22.23,22.23,0,0,1,237,6.62l-.56,1.18.72-.12.1,1.23c-1.85.4-3.65.76-5.18,1.05Zm7.85,2.4H249V22h-2.16v-.82h-5.5V22H239.3Zm2.21-3.31.45.05-.55-.84a44.39,44.39,0,0,0,4.3-1.37l.81,1.08a23,23,0,0,1-4.12,1.2,34.08,34.08,0,0,1,4.68,1L246.67,10a33.07,33.07,0,0,0-5.6-1.32Zm-.15,4.92v1.39h5.5V12.48Zm5.5,4.23v-1.4h-5.5v1.4Zm0,2.85V18.12h-5.5v1.44Z"/></g><g class="cls-1"><path class="cls-2" d="M383.22,114.57a12.72,12.72,0,0,1-3.34,4.75,17.32,17.32,0,0,0,5.52,2.11,9.41,9.41,0,0,0-1.32,1.76,16.39,16.39,0,0,1-5.78-2.62,19.63,19.63,0,0,1-6.1,2.81,4.63,4.63,0,0,0-.65-1.11v3h-3.07v4.39l1.54-.29c-.19-.86-.41-1.73-.58-2.47l1.61-.43a45.92,45.92,0,0,1,1.32,5.93l-1.7.5c-.05-.5-.15-1.08-.27-1.68-2.49.53-5,1.06-7,1.46l-.44-2.06c1-.14,2.33-.36,3.7-.62V125.3h-1.32v1h-1.61v-9.87h2.93v-4.13h1.87v4.13h3.07v1.2a13.2,13.2,0,0,0,4.71-5.64l1.94.5a9.74,9.74,0,0,1-.79,1.54h4.13l.36-.1Zm-17.93,8.9h1.49v-5.21h-1.49Zm4.63-5.21h-1.63v5.21h1.63Zm1.63,3.36a17.5,17.5,0,0,0,5.26-2.28,13.16,13.16,0,0,1-1.82-2.06,13.67,13.67,0,0,1-2,1.78c-.31-.27-1-.82-1.44-1.15Zm7.78,7.78h5.35v1.71h-5.35V134h-2.09v-2.9h-5V129.4h5V128h-3.77v-1.61h3.77V125H373V123.4h4.2v-1.68h2.09v1.68h4.32V125h-4.32v1.35h3.89V128h-3.89Zm-3.05-13.65-.09.11a11.08,11.08,0,0,0,2.11,2.36,10.2,10.2,0,0,0,2.14-2.47Z"/><path class="cls-2" d="M398,122.61a6,6,0,0,1-2.4-.31,50.77,50.77,0,0,1-5.18,1.49,10,10,0,0,0-1.2-1.59,41.2,41.2,0,0,0,5.47-1.34,4.7,4.7,0,0,1,0-.53v-3.22h1.89v3.1a18.35,18.35,0,0,0,7-4.42l1.68.77a20,20,0,0,1-6.43,4.47h3.79c.94,0,1.13-.22,1.23-1.54a5.66,5.66,0,0,0,1.7.62c-.22,2-.84,2.5-2.71,2.5Zm-6.64-5h-2v-3.82h9.19c-.21-.45-.48-.93-.72-1.34l2.14-.48a20.11,20.11,0,0,1,1,1.82h8.59v3.82h-2.09V115.5h-9.12a17.13,17.13,0,0,1,2.71,1.68l-1.22,1.2a17.3,17.3,0,0,0-3.39-2.13l.87-.75h-5.95Zm14.11,11.81a29.51,29.51,0,0,1,4.46,3.6l-1.7,1.17c-.36-.38-.82-.81-1.32-1.29-6.27.29-12.84.5-17.11.62l-.22-1.94,8.71-.19v-2h-6.72v-5.26h6.72v-1.2h2.21v1.2h7.2v5.26Zm-15.7-9.08a9.33,9.33,0,0,0,2.35-3l1.59.77a12.75,12.75,0,0,1-2.4,3.36Zm8.52,7.37v-1.84h-4.53v1.84Zm2.21-1.84v1.84h4.87v-1.84Zm4.32,5.3-1.51-1.08,1.18-.67h-4v1.89Zm1-13.68a16.78,16.78,0,0,1,3.87,3.26l-1.66,1a16.36,16.36,0,0,0-3.75-3.39Z"/></g><line class="cls-3" x1="0.53" y1="80.79" x2="144.93" y2="13.59"/><polyline class="cls-3" points="356.27 123.65 251.77 123.65 94.71 201.64"/></g></g></svg>