<svg xmlns="http://www.w3.org/2000/svg" viewBox="0 0 388.06 317.13"><defs><style>.cls-1{fill:#fff;}.cls-2{fill:none;stroke:#fff;stroke-miterlimit:10;stroke-width:2.5px;}</style></defs><g id="圖層_2" data-name="圖層 2"><g id="圖層_1-2" data-name="圖層 1"><g id="圖層_2-2" data-name="圖層 2"><g id="圖層_1-2-2" data-name="圖層 1-2"><g id="圖層_2-2-2" data-name="圖層 2-2"><g id="圖層_5" data-name="圖層 5"><path class="cls-1" d="M21.6,14.5H12v4.7c0,1.47-.41,2.09-1.42,2.43A16.87,16.87,0,0,1,5.47,22a9.77,9.77,0,0,0-.93-2.21c1.92.07,3.84.07,4.39.05s.72-.17.72-.67V14.5H0V12.31H9.65V8.9h-8V6.77h8V3.5C7.08,3.72,4.46,3.89,2,4a6.31,6.31,0,0,0-.49-2C7.18,1.78,14,1.15,17.69.07L19.35,1.9A49.48,49.48,0,0,1,12,3.24V6.77h8.25V8.9H12v3.41h9.6Z"/><path class="cls-1" d="M47,18.1v2.23H25.49V18.1h9.38V4.94H26.76V2.64h19v2.3H37.37V18.1Z"/><path class="cls-1" d="M59.57,17.23a16.84,16.84,0,0,1-7.63,4.71,8.74,8.74,0,0,0-1.47-1.85,15.93,15.93,0,0,0,7.25-3.58ZM59,13.51a20,20,0,0,0-2.45-1.34A17.32,17.32,0,0,1,51.86,14a8,8,0,0,0-1-1.52,18,18,0,0,0,3.72-1.2A26.49,26.49,0,0,0,52,10.4l1-1.3a34.51,34.51,0,0,1,3.43,1.15,8.51,8.51,0,0,0,1.66-1.39H51.6V7.27h7.75l.36-.07,1.2.58A9.86,9.86,0,0,1,58.25,11a19.19,19.19,0,0,1,2.06,1.08Zm3.67,2.84v5.71H60.46V16.35H51.07V14.47h9.39V12.79h1.27a4.74,4.74,0,0,0-.6-.74,21.26,21.26,0,0,0,3.24-.79c-.77-.27-1.51-.51-2.28-.7l1-1.3c1.15.29,2.3.65,3.45,1a8.46,8.46,0,0,0,2-1.42H61.83V7.27h8.11l.38-.07,1.3.62a8.81,8.81,0,0,1-3,3.24A27.69,27.69,0,0,1,72,12.58L70.66,14a34.91,34.91,0,0,0-3.91-1.85,20,20,0,0,1-4,1.34v1h9.48v1.88ZM67.4,7.22a43.21,43.21,0,0,0-5.18-1.75,40.06,40.06,0,0,1-8,1.73,5.9,5.9,0,0,0-.89-1.54,46.89,46.89,0,0,0,5.88-1c-1.34-.33-2.73-.62-4.1-.84l1.13-1.27c2,.34,4,.75,5.9,1.23A17.17,17.17,0,0,0,65,2.45H54.22V.79H67l.36-.07,1.32.84a11.71,11.71,0,0,1-4,2.93,40.94,40.94,0,0,1,4.18,1.39Zm-1.9,9.17a49.46,49.46,0,0,1,7,4.16L70.83,22a44.84,44.84,0,0,0-6.89-4.34Z"/><path class="cls-1" d="M90.94,15.53v.91c0,.51,0,.7.57.7h2.67A8.6,8.6,0,0,0,95.86,17,8.94,8.94,0,0,0,96,18.49a8.64,8.64,0,0,1-1.76.12H91.13c-1.73,0-2.07-.67-2.07-2.18v-.89H87.31c-.62,1.92-2.23,3-4.29,3.67a12.61,12.61,0,0,0-1.49-1.34c1.85-.46,3.17-1.15,3.69-2.33H81.31V18.6c0,.84.31,1.15,1.75,1.15h9.15a34.65,34.65,0,0,0,4.32-.24c.07.65.19,1.3.26,1.73a28.33,28.33,0,0,1-4.22.19H83.09c-3,0-4-.81-4-2.88v-3H76.37v-1.7H81V7.22H77V5.57h4V4.25h2.18V5.57h7.66V4.25h2.21V5.57h4.08V7.22H93.05v6.61h4.73v1.7ZM82.1,3.12H76.58V1.37H82.1V.07h2.16v1.3h2.45V3.12H84.26v1.1H82.1Zm1.08,4.1V8.45h7.66V7.22Zm0,3.94h7.66V9.91H83.18Zm0,2.67h7.66V12.62H83.18ZM89.69,3.12H87.48V1.37h2.21V.07h2.18v1.3h5.69V3.12H91.87v1.1H89.69Z"/><path class="cls-1" d="M107.16,4.44V3.62H102V1.75h5.16V.05h2.16v1.7h2.81V3.62h-2.81V4.9h-1.51c-.12.26-.24.5-.39.76h15.27v1.8H106.37a18.65,18.65,0,0,1-3.29,3.75,5.9,5.9,0,0,0-1.61-1.42,14.22,14.22,0,0,0,4.27-5.59Zm13.13,10.35c-.07,1.12-.17,2.06-.24,2.83h2.42v1.65h-2.68a3.94,3.94,0,0,1-.6,1.73,2.39,2.39,0,0,1-1.73.87,21.23,21.23,0,0,1-3.19,0,5.34,5.34,0,0,0-.53-1.7c1.2.12,2.25.14,2.71.14a1,1,0,0,0,.86-.33,1.53,1.53,0,0,0,.29-.68h-13c.19-1.22.38-2.83.57-4.48h-3.45V13h3.62c.14-1.49.26-3,.34-4.3h14.85v.91c0,1.28-.1,2.4-.14,3.39h2.78v1.78Zm-13,0c-.09,1-.19,2-.28,2.83h6.65a17,17,0,0,0-3.46-2l.89-.88Zm.41-4.42c-.07.84-.14,1.75-.24,2.64h6.07a14.65,14.65,0,0,0-3-1.78l.92-.86Zm10.2,7.25c.1-.72.17-1.66.27-2.83h-6.1a16.37,16.37,0,0,1,3.12,1.79l-.93,1Zm.36-4.61c0-.79.08-1.68.12-2.64h-6a15.77,15.77,0,0,1,2.9,1.8l-.81.84Zm-2.64-9.39H112.9V1.75h2.73V.05h2.16v1.7H123V3.62h-5.19V4.9h-2.16Z"/><path class="cls-1" d="M140.79,14.67A24,24,0,0,0,149,19.35a12.05,12.05,0,0,0-1.53,1.89A25.57,25.57,0,0,1,139,15.62v6.46h-2.35V15.75a23.25,23.25,0,0,1-8.48,5.61,11.08,11.08,0,0,0-1.49-1.85,21.86,21.86,0,0,0,8.3-4.84h-7.61V12.62h9.34V10.85h-7V1.2h16.49v9.65h-7.13v1.77h9.31v2.05ZM132,5.11h4.71v-2H132ZM136.71,9V6.86H132V9Zm7.08-5.88h-4.73v2h4.73Zm0,3.79h-4.73V9h4.73Z"/><path class="cls-1" d="M166,13.18v1h6.48V22H170.3v-.52H156.1V22H154V14.14h6.05v-1h-7.59V11.69H174.1v1.49ZM155.76,7.37A5,5,0,0,1,154,11.18a8.93,8.93,0,0,0-1.53-.88,3.72,3.72,0,0,0,1.48-3V7.22h-1.44V5.71h5.21V4.58h-4.2V.36h1.8V3.12h2.4V.07h2v11h-2V7.22h-2Zm14.55,12.91V17.5h-3.63c-1.94,0-2.42-.31-2.42-1.73v-.39h-2.52c-.24,1.2-1.25,2.24-4.32,2.81a7.06,7.06,0,0,0-1-1.24c2.33-.32,3.21-.92,3.5-1.57H156.1v4.9Zm-11.74-2h9.72v1.2h-9.72Zm2.88-12a5.41,5.41,0,0,0-.77-1.23,28.85,28.85,0,0,0,6.12-1c-.6-.55-1.34-1.25-2-1.8a31.08,31.08,0,0,1-3.53.93,6.28,6.28,0,0,0-.93-1.24A17.16,17.16,0,0,0,166.66,0l1.7.38c-.29.2-.57.41-.89.6h4.32l.34-.09,1.08.62c-2,3-6.34,4.2-10.92,4.78h6.77V5h2V6.29H174V7.66h-2.9V9.31c0,.94-.19,1.32-.91,1.56a11.74,11.74,0,0,1-3.29.24,7.65,7.65,0,0,0-.65-1.53h2.4c.26,0,.41-.07.41-.34V7.66h-5.38a11.64,11.64,0,0,1,2.23,1.72l-1.34,1.2a13.49,13.49,0,0,0-2.69-2.13l.91-.79h-2.35V6.29ZM165.27,4c-1.49.24-2.77.41-4,.6l-.2-1.2c1.18-.07,2.6-.19,4.21-.31Zm-1,9.15h-2.45v1h2.45Zm1.75,2.2v.41c0,.51.14.58.89.58h2.78c.43,0,.58,0,.63-.12v-.87ZM166.42,2c.62.5,1.22,1.06,1.7,1.51A9.76,9.76,0,0,0,170.69,2Z"/><path class="cls-1" d="M52.72,93.36a22.51,22.51,0,0,1-2.42,4.83,11.68,11.68,0,0,0-1.54-1.06A14.82,14.82,0,0,0,51,92.83Zm3.1-1.56v8.14H53.66V91.8H49.05V89.91h4.61V87.72H48.9V85.85h2.62a12.07,12.07,0,0,0-.84-3l1.82-.46a15,15,0,0,1,.89,3l-1.77.51h3.79a25,25,0,0,0,1.17-3.48l2.07.43c-.41,1.06-.82,2.16-1.23,3h2.81v1.87H55.82v2.19H59.9V91.8Zm4-9.46H49.29V80.5h4.39c-.26-.68-.58-1.44-.86-2l2.2-.58c.41.82.89,1.82,1.2,2.62h3.63Zm-1.7,10.3a21.45,21.45,0,0,1,2,3.6l-1.56.94a26.17,26.17,0,0,0-1.92-3.72Zm12.62-4.56H68.32V100H66.14V88.08H63.33v.58c0,3.45-.31,8.25-2.45,11.3a7.53,7.53,0,0,0-1.7-1.32c1.89-2.78,2.06-6.84,2.06-10V80.35a36.7,36.7,0,0,0,7.35-1.94L70.34,80a40.14,40.14,0,0,1-7,1.78V86h7.44Z"/><path class="cls-1" d="M75.59,86.62a5.78,5.78,0,0,0-1.53-1.3A18,18,0,0,0,77.54,78l2.06.29c-.17.6-.36,1.23-.58,1.87h2.64l.39-.12,1.29.89A26.58,26.58,0,0,1,81.69,84h2.9v9.38h-9ZM74.06,99.24c1.08-1.13,1.51-3,1.72-4.89l1.59.38c-.24,2-.67,4.1-1.83,5.35Zm4.29-17.3c-.29.72-.65,1.41-1,2.11h2.31a20.34,20.34,0,0,0,1-2.11Zm.89,6v-2h-1.8v2Zm-1.8,1.68v2h1.8v-2Zm2,4.78A21.76,21.76,0,0,1,79.8,99l-1.58.19A24.53,24.53,0,0,0,78,94.54Zm2.21,0a18,18,0,0,1,1.1,4.27L81.24,99a16.86,16.86,0,0,0-1-4.32Zm1-8.45h-1.8v2H82.7Zm0,3.72h-1.8v2H82.7ZM84,93.91a20.45,20.45,0,0,1,1.84,4.37l-1.46.55a21.32,21.32,0,0,0-1.78-4.41Zm12.26.2H91.51V100H89.32V94.11H85v-2h4.34V89.3H85.7V87.36h3.62V84.72H85.19v-2h2.09a19.64,19.64,0,0,0-1.56-4l1.82-.65A18.45,18.45,0,0,1,89.3,82.3l-1.15.45h4.51l-1.32-.38A26.54,26.54,0,0,0,93,78l2.26.56c-.67,1.46-1.39,3.09-2,4.17h2.47v2H91.51v2.64H95.3V89.3H91.51v2.84h4.77Z"/><path class="cls-1" d="M120.45,84.05v1C120.16,94.7,119.94,98,119.2,99a2.15,2.15,0,0,1-1.68,1,12.75,12.75,0,0,1-2.62,0,4.71,4.71,0,0,0-.17-.91,1,1,0,0,1-.24.15,7.37,7.37,0,0,1-2.56.24,7.3,7.3,0,0,0-.58-1.42H113c.24,0,.28-.07.28-.28V96.62H110v2.81h-2V96.62h-3v2.89h-1.9V90.19H108V89.11h-5.5v-.4A16.22,16.22,0,0,1,101.3,90a8,8,0,0,0-1.85-1.31,15.35,15.35,0,0,0,4.32-6.25l2.28.36c-.17.41-.36.82-.55,1.23Zm-15.77-2.67H100.1V79.49h4.58V78h2.18v1.47h3.27v1.89h-3.27v1.06h-2.18ZM108,87.75V86.26h2v1.49h3a9.36,9.36,0,0,0-1.71-1.16l1-.69h-7.78a17,17,0,0,1-1.17,1.85Zm-3,3.76v1.28h3V91.51Zm3,3.84V94.06h-3v1.29ZM115.19,98h1.28a.74.74,0,0,0,.79-.39c.5-.65.77-3.65,1-11.78h-5.33a8.24,8.24,0,0,1,1.8,1.24l-.74.61h1.8V89H110v1.08h5.18V98ZM110,92.79h3.26V91.51H110Zm3.26,2.56V94.06H110v1.29Zm7.92-15.86v1.89h-4.53V83h-2.21V81.38h-3.39V79.49h3.39V78h2.21v1.47Z"/><path class="cls-1" d="M145.7,85.1c-.27,9.8-.55,12.89-1.25,13.93a2.3,2.3,0,0,1-1.7,1,15.67,15.67,0,0,1-2.74,0,4.34,4.34,0,0,0-.53-1.75,20.31,20.31,0,0,0,2.21.1.73.73,0,0,0,.77-.41c.53-.67.79-3.72,1-12H129.59a21.13,21.13,0,0,1-3.33,4,6.78,6.78,0,0,0-1.47-1.46A17,17,0,0,0,129,82.61l1.32.24V81.53h-4.78V79.61h4.78V78h2.21v1.59h3v1.92h-3V83h-1.4c-.16.34-.31.68-.48,1h15Zm-15.34,8.81v2.55h3.14V93.15h-6.69V91.42h6.69v-2H131a12.87,12.87,0,0,1-1.32,1.72c-.41-.26-1.2-.69-1.66-.91a14.07,14.07,0,0,0,2.69-4l1.8.5-.51,1h9v1.63h-5.5v2h6.38v1.73H135.5v3.31h3.05V93.91h2.06v4.2H128.39v-4.2Zm16.25-14.3v1.92h-4.8v1.68h-2.18V81.53h-3.17V79.61h3.17V78h2.18v1.59Z"/><path class="cls-1" d="M64.82,164.46a17.92,17.92,0,0,0,6,3.56,10.92,10.92,0,0,0-1.49,1.77,19.58,19.58,0,0,1-7.15-5.33h-5a16,16,0,0,1-7,5.54,10.24,10.24,0,0,0-1.49-1.73,14.93,14.93,0,0,0,6.08-3.82H49.31v-1.77h6v-1.47H52.07v-1.58h3.27v-1.46H51.69v-.92h-2v-4.53h9.07c-.19-.46-.41-.89-.62-1.3l2.28-.62a11.67,11.67,0,0,1,1,1.92H70v4.53H67.84v.92H64.31v1.46h3.12v1.58H64.31v1.47h6v1.77Zm-9.48-7.89v-1.44h2.2v1.44h4.52v-1.44h2.25v1.44h3.36v-2H51.81v2Zm-.46,12.22a56.62,56.62,0,0,1,10.9,2.56l-1,1.85a48.77,48.77,0,0,0-10.9-2.73Zm2.86-3.51a26,26,0,0,1,5.57,1.83l-1,1.53a27.84,27.84,0,0,0-5.52-1.94Zm-.2-5.64h4.52v-1.46H57.54Zm0,3.05h4.52v-1.47H57.54Z"/><path class="cls-1" d="M86.78,162.3a14,14,0,0,0,9.6,8.62A8.15,8.15,0,0,0,94.87,173a15.57,15.57,0,0,1-9.63-8.89c-1.2,3.36-3.86,6.65-9.6,8.91a8.16,8.16,0,0,0-1.46-1.9c5.85-2.25,8.2-5.59,9.12-8.81H74.87V160h8.86a22.53,22.53,0,0,0,.12-2.32v-2.62H75.74v-2.3H94.58v2.3h-8.4v2.64a18.25,18.25,0,0,1-.1,2.3h9.48v2.28Z"/><path class="cls-1" d="M108,168.28c-2.74.82-5.71,1.66-8,2.31l-.43-2.14,3-.77v-6.22H99.9V159.4h2.74v-4.78h-2.9v-2.06h7.92v2.06h-2.93v4.78h2.35v2.06h-2.35v5.65l3-.85Zm7.85-16.68a9.18,9.18,0,0,1-.48,1,20.18,20.18,0,0,0,6.82,5.52,8.72,8.72,0,0,0-1.61,1.82,24.16,24.16,0,0,1-6.27-5.61,19.35,19.35,0,0,1-6.41,5.83,8.61,8.61,0,0,0-1.46-1.61,16.83,16.83,0,0,0,7.35-7.53ZM121,165.09c-2.28,4-6.43,6.55-11.69,8a8.19,8.19,0,0,0-1.32-1.92c5-1.1,9-3.33,11-6.86Zm-4.84-6.6a18.85,18.85,0,0,1-6,4.75,8.53,8.53,0,0,0-1.39-1.49,16.62,16.62,0,0,0,5.67-4Zm2.35,3.19a20.2,20.2,0,0,1-8.12,6.43,8,8,0,0,0-1.41-1.65,17.92,17.92,0,0,0,7.68-5.57Z"/><path class="cls-1" d="M133.34,168.33c-2.72.79-5.6,1.66-7.83,2.28l-.43-2.14,3-.76v-6.22h-2.71V159.4h2.71v-4.78h-2.9v-2.06h8.06v2.06h-3v4.78h2.59v2.09h-2.59v5.62c.93-.27,1.89-.51,2.85-.8Zm8.73-5.09a19.3,19.3,0,0,0,5.5,6.82,8.79,8.79,0,0,0-1.58,1.7,21.13,21.13,0,0,1-4.78-6.43v7.75h-2.14v-7.66a19,19,0,0,1-5.78,6.63,10.24,10.24,0,0,0-1.49-1.73,17.34,17.34,0,0,0,6.34-7.08h-4.9v-2h5.83v-3.79h-2.85a12.83,12.83,0,0,1-1.47,3.19,13.19,13.19,0,0,0-1.75-1.1,18.55,18.55,0,0,0,2.35-7.35l2,.36c-.16,1-.33,1.92-.55,2.86H139v-4.32h2.14v4.32h4.73v2h-4.73v3.79H147v2Z"/><path class="cls-1" d="M72.79,296.58v20.14H70.42v-1.46H59.11v1.56H56.83V296.58Zm-13.68,2.26v5.86H70.42v-5.86ZM70.42,313v-6.09H59.11V313Z"/><path class="cls-1" d="M94.06,301.5c.52,7.57,2.2,13.28,4.29,13.28.58,0,.87-1.3,1-4.42a5.55,5.55,0,0,0,2,1.27c-.39,4.32-1.18,5.5-3.17,5.5-4,0-5.86-7-6.46-15.63H79.54v-2.18h12c0-1.37-.1-2.76-.1-4.15h2.4v4.15h6.89v2.18Zm-7.44,11.33c1.58-.29,3.21-.62,4.82-1l.17,2c-4,.91-8.28,1.85-11.35,2.52l-.65-2.26c1.29-.21,3-.53,4.77-.86V306.8h-4v-2.1H90.82v2.16h-4.2Zm10-17.66a18,18,0,0,1,3.34,2.76l-1.56,1.39a18.79,18.79,0,0,0-3.24-2.93Z"/><path class="cls-1" d="M124.27,298.72V317h-2.35v-1.6H109.13v1.68H106.9V298.72h5.9A26.88,26.88,0,0,0,114,295l2.85.46c-.48,1.13-1,2.3-1.51,3.31ZM109.13,301v4.92h12.79V301Zm12.79,12.22v-5.09H109.13v5.09Z"/><path class="cls-1" d="M151.73,314v2.16H130.3V314h9.31v-7.13h-7.13V304.7h7.13v-6H131.4v-2.18h19.2v2.18H142v6h7.59v2.18H142V314Zm-6.22-6.39c1.39,1.33,3.31,3.13,4.27,4.25l-1.65,1.49c-.91-1.15-2.83-3.05-4.23-4.44Z"/><path class="cls-1" d="M160.7,306.35c.39.63,1.8,3.56,2.14,4.25l-1.37,1.4c-.29-.94-.93-2.77-1.44-4v9.09h-1.8v-9.6a27.09,27.09,0,0,1-2,7,13.93,13.93,0,0,0-.94-2.13,24.61,24.61,0,0,0,1.7-6l1.25.48V305.1h-2.61V303h2.61v-7.95H160V303h2.4v2.08H160v1.73ZM156.5,302a37.14,37.14,0,0,0-1.08-5.11l1.44-.33a38.4,38.4,0,0,1,1.13,5.08Zm3.56-.38a40.79,40.79,0,0,0,1.29-5.09L163,297c-.5,1.68-1.12,3.79-1.65,5.06Zm17-5.64v21.1h-1.73v-.89H164.78v.89H163.1V296Zm-1.73,18.36v-6l-.84.6c-.19-.21-.41-.5-.7-.81l-2,.12h1.12v1h2v1.3h-2v2c0,.72-.14,1-.67,1.22a6.33,6.33,0,0,1-2.37.24,5.61,5.61,0,0,0-.58-1.24H171c.21,0,.32-.07.32-.26v-1.95h-4.18a10.78,10.78,0,0,1,1.75,2l-1.29.84a13.88,13.88,0,0,0-1.88-2.23l1-.6H165.5v-1.3h5.84v-1c-2.19.12-4.25.19-6,.29l-.09-1.23c1.08,0,2.4,0,3.86-.09v-1H165.6v-4.78h3.55v-.81h-3.86v-1.28h3.86v-1.1h1.59v1.1h4.1v1.28h-4.1v.81h3.69v4.78h-.88a15.26,15.26,0,0,1,1.77,1.54v-9.94H164.78V314.3Zm-6.17-11.88H167v.86h2.11Zm-2.16,1.8v.94h2.11v-.94Zm5.93-1.82H170.7v.86H173Zm-2.23,2.76H173v-.94h-2.23Zm0,1v.91l1.94-.05c-.21-.19-.44-.36-.67-.53l.53-.33Z"/><path class="cls-1" d="M202.61,307.75h-9.53v6.55c0,1.37-.34,2-1.34,2.37a16.69,16.69,0,0,1-4.83.41,8.72,8.72,0,0,0-1-2.3c1.83.07,3.63.07,4.15.05s.65-.15.65-.58v-6.5H181v-2.24h9.67v-3.38a29.57,29.57,0,0,0,5.43-3.39H183.46v-2.18h15.16l.51-.12,1.68,1.3a36.57,36.57,0,0,1-7.73,5.56v2.21h9.53Z"/><polyline class="cls-2" points="338.8 278.63 260.51 307.18 212.51 307.18"/><line class="cls-2" x1="159.06" y1="159.68" x2="367.06" y2="159.68"/><line class="cls-2" x1="155.06" y1="88.68" x2="367.06" y2="88.68"/><line class="cls-2" x1="181.06" y1="11.68" x2="388.06" y2="11.68"/></g></g></g></g></g></g></svg>